PathFileType	4	(X/Y/Z)	Patient4_TMGait_0pt2_02_right_18.trc.trc
DataRate	CameraRate	NumFrames	NumMarkers	Units	OrigDataRate	OrigDataStartFrame	OrigNumFrames
47.945205479452	47.945205479452	4	33	mm	47.945205479452	124	       141
Frame#	Time	R.Midfoot.Superior			Sacral			L.Shoulder			Chest			R.Shoulder			Neck			R.ASIS			L.ASIS			R.Thigh.Superior			R.Thigh.Lateral			R.Thigh.Inferior			R.Patella			L.Thigh.Superior			L.Thigh.Lateral			L.Thigh.Inferior			L.Patella			L.Shank.Superior			L.Shank.Lateral			L.Shank.Inferior			R.Shank.Superior			R.Shank.Lateral			R.Shank.Inferior			R.Heel			R.Midfoot.Lateral			R.Toe			L.Heel			L.Midfoot.Lateral			L.Midfoot.Superior			L.Toe			L.Elbow			L.Wrist			R.Elbow			R.Wrist			
		X1	Y1	Z1	X2	Y2	Z2	X3	Y3	Z3	X4	Y4	Z4	X5	Y5	Z5	X6	Y6	Z6	X7	Y7	Z7	X8	Y8	Z8	X9	Y9	Z9	X10	Y10	Z10	X11	Y11	Z11	X12	Y12	Z12	X13	Y13	Z13	X14	Y14	Z14	X15	Y15	Z15	X16	Y16	Z16	X17	Y17	Z17	X18	Y18	Z18	X19	Y19	Z19	X20	Y20	Z20	X21	Y21	Z21	X22	Y22	Z22	X23	Y23	Z23	X24	Y24	Z24	X25	Y25	Z25	X26	Y26	Z26	X27	Y27	Z27	X28	Y28	Z28	X29	Y29	Z29	X30	Y30	Z30	X31	Y31	Z31	X32	Y32	Z32	X33	Y33	Z33	

124	42.555428571429	1272.651254858660	104.208672426463	595.594678532791	920.982642123757	995.872584948642	392.194087322086	1133.809182593391	1438.888889615892	268.005209936099	1182.019965006414	1365.675732894545	449.579386535027	1049.854685536004	1436.195764262828	590.130398740196	1069.160623757918	1493.748324883838	415.463930591511	1124.266926161779	941.157125603936	556.479740143064	1163.932109101683	964.094797091810	282.596610068097	1198.891103345864	755.847184864486	536.362383769343	1136.019892010977	638.451553729216	601.289585413244	1227.759747734577	594.633528967830	530.535266201530	1249.639420618989	509.912389319779	546.078217639225	1182.828318795311	739.092076056000	316.231089875685	1090.417465501612	627.653350530839	240.939866080781	1152.234214818395	545.277809766761	316.520060174379	1142.353278905057	476.418047828455	325.194949434964	1108.908700809181	405.611449675811	313.916779211711	1012.071348188539	299.920167042353	257.745740155649	1043.907818709240	186.051796806608	334.188929259471	1227.424890418706	419.525309111718	558.963009851013	1164.081206811638	316.780641750211	632.024253064344	1218.303463136844	219.978427242853	580.902350625865	1099.951502132792	46.232996840746	571.248429646430	1189.660769169287	38.224789974519	637.015542451859	1394.219074917020	56.398697454245	611.225398161657	901.744072183737	38.585254558644	373.311152017422	975.004076046698	35.068049249148	292.183674136926	1058.372048046632	96.351730361766	320.211628080904	1186.095046692772	47.778348881704	289.712036167836	1316.869106343577	1187.430484482212	102.900748523956	1575.823867909992	1182.009634799403	141.905714907058	870.604386826647	1133.953444654839	649.932722434421	851.423235635187	871.161354601903	640.299870789650	
125	42.576285714286	1268.910591166083	102.393737613311	594.420119308846	923.311392936427	995.608013524048	395.235708427491	1137.703444632701	1438.084879093907	273.467347446177	1184.028805083159	1365.058527214276	455.572533960018	1050.635097783570	1436.118013988988	594.669913623507	1071.663321010638	1493.175214062320	420.257391607169	1124.803753277356	940.172425831912	561.515629928338	1167.213341093060	963.585044176616	288.247457893210	1199.122393558602	753.957305542842	540.995033334245	1134.297637335759	636.327788124661	603.530611066097	1226.726974998809	592.814804514343	533.522719067110	1247.060326920222	508.060876498647	547.838716258273	1183.884230161221	737.844066677327	320.371061724597	1090.294368967831	627.741526732089	243.981065963963	1150.621283536935	544.330530154126	319.390419745919	1139.872837583044	475.594510597360	327.688989885972	1106.227826195837	405.304187005089	315.936660713294	1009.045306387422	300.344978152684	258.922332938788	1040.217248990389	185.915238960672	334.763052174534	1225.200688812182	417.461046483590	560.250236238467	1161.859842577181	314.547183656421	632.760438738325	1215.374987579255	217.971107907691	580.697657671718	1096.027396635581	45.731096387168	570.521552064349	1185.481300079665	37.902989552140	636.632722752482	1390.208647256738	53.970182650344	610.740561523142	897.587358899722	38.559938551300	373.251360981078	970.861459299754	35.044347776022	292.187593787996	1054.276781799663	96.307048515880	320.294175378493	1181.975010317673	47.636786632352	289.733278910073	1322.406961266580	1188.589209106808	108.476015663471	1581.309785316307	1191.016588661179	147.923504686688	872.285892462303	1133.051256289904	652.305918000587	855.532190456622	869.921110237005	641.201687755950	
126	42.597142857143	1264.350270833772	100.859536589901	593.373442872494	925.644470310185	995.492660289819	398.580009249258	1141.647031287997	1437.331451285149	279.112564033960	1186.313393165636	1364.418117723848	461.670760733167	1051.873013109238	1435.986349941001	599.488633541476	1074.368320867041	1492.635309203126	425.299107056226	1125.603776851609	939.281396028637	566.689436306291	1170.417960892321	963.036619917003	293.992943505956	1199.760604060584	752.328263892993	545.326181347734	1133.427308151845	634.539816959941	605.787943446146	1226.256013306853	591.266627528484	536.177116497526	1245.175065068713	506.300166806252	549.476841229380	1184.978283575763	736.571625190449	324.643107417295	1090.226308804350	627.785825903054	247.280641685200	1149.193359076667	543.375595225698	322.457769488955	1137.645261383699	474.734765771064	330.369658985749	1103.714920772721	404.985821161372	318.133619687067	1006.076648925247	300.851583301479	260.284867026072	1036.575731426497	185.780418954647	335.412410759018	1223.312705576118	415.500796854107	561.478826357641	1159.671755401891	312.590213621571	633.487845439509	1212.106444699813	216.053993778207	580.465873503282	1091.304031653044	45.281902002864	569.830032244460	1180.507241840131	37.716305206209	636.339880618840	1385.480072331044	51.930764031403	610.470958807463	893.445903521780	38.521990086327	373.218394175536	966.736041458377	35.029854643780	292.222205835160	1050.219430650617	96.262876917754	320.392747988147	1177.877605783886	47.455832383535	289.741967603123	1327.583411063399	1189.348929784706	114.223363263743	1586.264308278783	1198.845255899189	153.935790251101	874.945623462814	1131.714140455765	655.506749891691	860.824745995668	868.295779818725	643.278133357374	
127	42.618000000000	1259.389865461882	99.649076200914	592.542189138447	927.924400670481	995.574559878383	402.261672553157	1145.652639233800	1436.665897600841	284.888143720185	1188.876940288850	1363.777515578396	467.826816344678	1053.576506331752	1435.849948689448	604.541016451310	1077.291468419434	1492.171337510627	430.537255098325	1126.645839864598	938.537242107578	571.984180419747	1173.451701808408	962.474601437739	299.771059974240	1200.739354788667	751.036925018442	549.393999256155	1133.349932911158	633.150347083056	608.172257809792	1226.277607598002	590.035225965760	538.614659801478	1243.946797296069	504.721841031961	551.098576162101	1185.970824139228	735.304185430574	329.012357345566	1090.073120815861	627.820863294165	250.798307825477	1147.830495615373	542.444880969577	325.671088877302	1135.551422452014	473.879082068379	333.186095446289	1101.276404411271	404.695023829626	320.462197305064	1003.086600764918	301.452270319101	261.815974704430	1032.944642622848	185.669795339518	336.126541308061	1221.800217253047	413.737400858006	562.728503435862	1157.671239428733	310.932819565391	634.305242190960	1208.754827251446	214.309896601000	580.305726771875	1086.223277885310	44.869337774154	569.269338470207	1175.211624240296	37.608095820324	636.170579020380	1380.461636376854	50.350540680196	610.384805131661	889.313825462478	38.487198766728	373.216735280829	962.621622474200	35.034601977788	292.291615480339	1046.193028582865	96.224731764465	320.504862779067	1173.795124204783	47.234188653711	289.737791822055	1332.442081835894	1189.768087707428	120.093781372581	1590.788838301092	1205.452872735418	159.921959740041	878.326581825791	1130.179059428016	659.512811331899	867.001402352215	866.535432364020	646.573541026254	
